<svg width="9" height="10" viewBox="0 0 9 10" fill="none" xmlns="http://www.w3.org/2000/svg">
<path d="M4.14062 6.95312C4.22396 6.97917 4.30729 6.9974 4.39062 7.00781C4.47396 7.01302 4.55729 7.01562 4.64062 7.01562C4.84896 7.01562 5.04948 6.98698 5.24219 6.92969C5.4349 6.8724 5.61458 6.79167 5.78125 6.6875C5.95312 6.57812 6.10417 6.44792 6.23438 6.29688C6.36979 6.14062 6.47917 5.96875 6.5625 5.78125L8.125 7.35156C7.92708 7.63281 7.69792 7.88542 7.4375 8.10938C7.18229 8.33333 6.90365 8.52344 6.60156 8.67969C6.30469 8.83594 5.98958 8.95312 5.65625 9.03125C5.32812 9.11458 4.98958 9.15625 4.64062 9.15625C4.05208 9.15625 3.4974 9.04688 2.97656 8.82812C2.46094 8.60938 2.00781 8.30469 1.61719 7.91406C1.23177 7.52344 0.927083 7.0599 0.703125 6.52344C0.479167 5.98177 0.367188 5.38802 0.367188 4.74219C0.367188 4.08073 0.479167 3.47656 0.703125 2.92969C0.927083 2.38281 1.23177 1.91667 1.61719 1.53125C2.00781 1.14583 2.46094 0.846354 2.97656 0.632812C3.4974 0.419271 4.05208 0.3125 4.64062 0.3125C4.98958 0.3125 5.33073 0.354167 5.66406 0.4375C5.9974 0.520833 6.3125 0.640625 6.60938 0.796875C6.91146 0.953125 7.19271 1.14583 7.45312 1.375C7.71354 1.59896 7.94271 1.85156 8.14062 2.13281L4.14062 6.95312ZM5.23438 2.55469C5.13542 2.51823 5.03646 2.49479 4.9375 2.48438C4.84375 2.47396 4.74479 2.46875 4.64062 2.46875C4.34896 2.46875 4.07292 2.52344 3.8125 2.63281C3.55729 2.73698 3.33333 2.88802 3.14062 3.08594C2.95312 3.28385 2.80469 3.52344 2.69531 3.80469C2.58594 4.08073 2.53125 4.39323 2.53125 4.74219C2.53125 4.82031 2.53385 4.90885 2.53906 5.00781C2.54948 5.10677 2.5625 5.20833 2.57812 5.3125C2.59896 5.41146 2.6224 5.50781 2.64844 5.60156C2.67448 5.69531 2.70833 5.77865 2.75 5.85156L5.23438 2.55469Z" fill="#C07A4D"/>
</svg>
